<svg height="512pt" viewBox="-4 0 512 512" width="512pt" xmlns="http://www.w3.org/2000/svg"><path d="m407.863281 512c-2.300781 0-4.507812-.914062-6.132812-2.542969l-21.390625-21.390625c-2.257813-2.179687-3.164063-5.40625-2.367188-8.441406.792969-3.03125 3.164063-5.402344 6.195313-6.195312 3.035156-.792969 6.261719.109374 8.441406 2.367187l21.390625 21.390625c2.480469 2.480469 3.222656 6.214844 1.878906 9.457031-1.339844 3.242188-4.503906 5.355469-8.015625 5.355469zm0 0" fill="#4c8056"/><path d="m147.527344 0h208.269531c9.585937 0 17.355469 7.769531 17.355469 17.355469v312.40625c0 9.585937-7.769532 17.355469-17.355469 17.355469h-208.269531c-9.585938 0-17.359375-7.769532-17.359375-17.355469v-312.40625c0-9.585938 7.773437-17.355469 17.359375-17.355469zm0 0" fill="#2980ba"/><path d="m396.078125 454.882812-32.878906-14.09375c-3.03125-1.300781-6.535157-.769531-9.046875 1.371094-2.507813 2.136719-3.589844 5.511719-2.789063 8.710938l9.398438 37.585937c.757812 3.03125 3.089843 5.417969 6.101562 6.253907 3.011719.832031 6.238281-.019532 8.449219-2.226563l23.492188-23.492187c2.035156-2.039063 2.925781-4.949219 2.378906-7.777344-.542969-2.828125-2.457032-5.199219-5.105469-6.332032zm0 0" fill="#24ae5f"/><path d="m321.085938 485.964844h-17.355469c-4.792969 0-8.679688-3.882813-8.679688-8.675782 0-4.792968 3.886719-8.679687 8.679688-8.679687h17.355469c4.792968 0 8.675781 3.886719 8.675781 8.679687 0 4.792969-3.882813 8.675782-8.675781 8.675782zm0 0" fill="#ff5364"/><path d="m269.015625 485.964844c-14.375 0-26.03125-11.65625-26.03125-26.03125 0-4.792969 3.882813-8.679688 8.675781-8.679688 4.792969 0 8.679688 3.886719 8.679688 8.679688 0 4.792968 3.882812 8.675781 8.675781 8.675781s8.679687 3.886719 8.679687 8.679687c0 4.792969-3.886718 8.675782-8.679687 8.675782zm0 0" fill="#ff5364"/><path d="m251.660156 433.898438c-4.792968 0-8.675781-3.886719-8.675781-8.679688v-17.355469c0-4.792969 3.882813-8.675781 8.675781-8.675781 4.792969 0 8.679688 3.882812 8.679688 8.675781v17.355469c0 4.792969-3.886719 8.679688-8.679688 8.679688zm0 0" fill="#ff5364"/><path d="m182.238281 216.949219c-14.378906 0-26.035156-11.65625-26.035156-26.035157 0-4.792968 3.886719-8.675781 8.679687-8.675781 4.792969 0 8.675782 3.882813 8.675782 8.675781 0 4.792969 3.886718 8.679688 8.679687 8.679688 4.664063-.292969 8.382813-4.011719 8.675781-8.679688 0-3.070312-5.207031-5.917968-12.554687-9.589843-9.347656-4.683594-22.15625-11.078125-22.15625-25.121094.359375-14.226563 11.808594-25.671875 26.035156-26.035156 14.378907 0 26.03125 11.65625 26.03125 26.035156 0 4.792969-3.882812 8.679687-8.675781 8.679687s-8.679688-3.886718-8.679688-8.679687-3.882812-8.675781-8.675781-8.675781c-4.667969.289062-8.386719 4.011718-8.679687 8.675781 0 3.070313 5.207031 5.917969 12.558594 9.589844 9.34375 4.6875 22.152343 11.082031 22.152343 25.121093-.359375 14.226563-11.804687 25.675782-26.03125 26.035157zm0 0" fill="#f0c419"/><path d="m260.339844 216.949219h-17.355469c-9.585937 0-17.355469-7.769531-17.355469-17.355469v-52.066406c0-9.585938 7.769532-17.359375 17.355469-17.359375h17.355469c4.792968 0 8.675781 3.886719 8.675781 8.679687 0 4.792969-3.882813 8.679688-8.675781 8.679688h-17.355469v52.066406h17.355469c4.792968 0 8.675781 3.882812 8.675781 8.675781s-3.882813 8.679688-8.675781 8.679688zm0 0" fill="#f0c419"/><path d="m260.339844 182.238281h-26.035156c-4.792969 0-8.675782-3.886719-8.675782-8.679687 0-4.792969 3.882813-8.675782 8.675782-8.675782h26.035156c4.792968 0 8.675781 3.882813 8.675781 8.675782 0 4.792968-3.882813 8.679687-8.675781 8.679687zm0 0" fill="#f0c419"/><path d="m316.746094 216.949219c-16.773438 0-30.375-13.597657-30.375-30.371094v-26.035156c0-16.773438 13.601562-30.375 30.375-30.375 16.773437 0 30.371094 13.601562 30.371094 30.375v26.035156c0 16.773437-13.597657 30.371094-30.371094 30.371094zm0-69.421875c-7.1875 0-13.015625 5.824218-13.015625 13.015625v26.035156c0 7.1875 5.828125 13.015625 13.015625 13.015625s13.015625-5.828125 13.015625-13.015625v-26.035156c0-7.191407-5.828125-13.015625-13.015625-13.015625zm0 0" fill="#f0c419"/><path d="m485.964844 34.710938h-112.8125v295.050781c0 9.585937-7.769532 17.355469-17.355469 17.355469h-78.101563v17.355468c0 9.585938 7.769532 17.359375 17.355469 17.359375h190.914063c9.585937 0 17.355468-7.773437 17.355468-17.359375v-312.40625c0-9.585937-7.769531-17.355468-17.355468-17.355468zm0 0" fill="#556080"/><path d="m156.203125 347.117188h-8.675781c-9.585938 0-17.359375-7.769532-17.359375-17.355469v-295.050781h-112.8125c-9.585938 0-17.355469 7.769531-17.355469 17.355468v312.40625c0 9.585938 7.769531 17.359375 17.355469 17.359375h190.914062c9.585938 0 17.359375-7.773437 17.359375-17.359375v-17.355468zm0 0" fill="#556080"/><path d="m251.660156 34.710938 15.585938 20.332031 27.804687 6.1875-18.171875 18.753906 1.597656 24.152344-26.816406-8.738281-26.8125 8.738281 1.59375-24.152344-18.171875-18.753906 27.804688-6.1875zm0 0" fill="#f3d55b"/><path d="m260.339844 251.660156h-95.457032c-4.792968 0-8.679687-3.882812-8.679687-8.675781s3.886719-8.679687 8.679687-8.679687h95.457032c4.792968 0 8.675781 3.886718 8.675781 8.679687s-3.882813 8.675781-8.675781 8.675781zm0 0" fill="#f3d55b"/><path d="m338.441406 286.371094h-173.558594c-4.792968 0-8.679687-3.882813-8.679687-8.675782 0-4.792968 3.886719-8.679687 8.679687-8.679687h173.558594c4.792969 0 8.675782 3.886719 8.675782 8.679687 0 4.792969-3.882813 8.675782-8.675782 8.675782zm0 0" fill="#f3d55b"/><path d="m338.441406 321.085938h-173.558594c-4.792968 0-8.679687-3.886719-8.679687-8.679688s3.886719-8.675781 8.679687-8.675781h173.558594c4.792969 0 8.675782 3.882812 8.675782 8.675781s-3.882813 8.679688-8.675782 8.679688zm0 0" fill="#f3d55b"/><g fill="#fff"><path d="m78.101562 355.796875h-43.390624c-4.792969 0-8.675782-3.886719-8.675782-8.679687 0-4.792969 3.882813-8.675782 8.675782-8.675782h43.390624c4.792969 0 8.679688 3.882813 8.679688 8.675782 0 4.792968-3.886719 8.679687-8.679688 8.679687zm0 0"/><path d="m95.457031 321.085938h-60.746093c-4.792969 0-8.675782-3.886719-8.675782-8.679688s3.882813-8.675781 8.675782-8.675781h60.746093c4.792969 0 8.679688 3.882812 8.679688 8.675781s-3.886719 8.679688-8.679688 8.679688zm0 0"/><path d="m95.457031 286.371094h-60.746093c-4.792969 0-8.675782-3.882813-8.675782-8.675782 0-4.792968 3.882813-8.679687 8.675782-8.679687h60.746093c4.792969 0 8.679688 3.886719 8.679688 8.679687 0 4.792969-3.886719 8.675782-8.679688 8.675782zm0 0"/><path d="m95.457031 251.660156h-60.746093c-4.792969 0-8.675782-3.882812-8.675782-8.675781s3.882813-8.679687 8.675782-8.679687h60.746093c4.792969 0 8.679688 3.886718 8.679688 8.679687s-3.886719 8.675781-8.679688 8.675781zm0 0"/><path d="m95.457031 147.527344h-60.746093c-4.792969 0-8.675782-3.886719-8.675782-8.679688 0-4.792968 3.882813-8.679687 8.675782-8.679687h60.746093c4.792969 0 8.679688 3.886719 8.679688 8.679687 0 4.792969-3.886719 8.679688-8.679688 8.679688zm0 0"/><path d="m95.457031 112.8125h-60.746093c-4.792969 0-8.675782-3.882812-8.675782-8.675781s3.882813-8.679688 8.675782-8.679688h60.746093c4.792969 0 8.679688 3.886719 8.679688 8.679688s-3.886719 8.675781-8.679688 8.675781zm0 0"/><path d="m69.421875 78.101562h-34.710937c-4.792969 0-8.675782-3.886718-8.675782-8.679687 0-4.789063 3.882813-8.675781 8.675782-8.675781h34.710937c4.792969 0 8.679687 3.886718 8.679687 8.675781 0 4.792969-3.886718 8.679687-8.679687 8.679687zm0 0"/><path d="m78.101562 216.949219h-43.390624c-4.792969 0-8.675782-3.886719-8.675782-8.679688s3.882813-8.675781 8.675782-8.675781h43.390624c4.792969 0 8.679688 3.882812 8.679688 8.675781s-3.886719 8.679688-8.679688 8.679688zm0 0"/><path d="m78.101562 182.238281h-43.390624c-4.792969 0-8.675782-3.886719-8.675782-8.679687 0-4.792969 3.882813-8.675782 8.675782-8.675782h43.390624c4.792969 0 8.679688 3.882813 8.679688 8.675782 0 4.792968-3.886719 8.679687-8.679688 8.679687zm0 0"/><path d="m468.609375 355.796875h-52.066406c-4.792969 0-8.679688-3.886719-8.679688-8.679687 0-4.792969 3.886719-8.675782 8.679688-8.675782h52.066406c4.792969 0 8.679687 3.882813 8.679687 8.675782 0 4.792968-3.886718 8.679687-8.679687 8.679687zm0 0"/><path d="m468.609375 321.085938h-60.746094c-4.792969 0-8.675781-3.886719-8.675781-8.679688s3.882812-8.675781 8.675781-8.675781h60.746094c4.792969 0 8.679687 3.882812 8.679687 8.675781s-3.886718 8.679688-8.679687 8.679688zm0 0"/><path d="m468.609375 286.371094h-43.390625c-4.792969 0-8.675781-3.882813-8.675781-8.675782 0-4.792968 3.882812-8.679687 8.675781-8.679687h43.390625c4.792969 0 8.679687 3.886719 8.679687 8.679687 0 4.792969-3.886718 8.675782-8.679687 8.675782zm0 0"/><path d="m468.609375 251.660156h-60.746094c-4.792969 0-8.675781-3.882812-8.675781-8.675781s3.882812-8.679687 8.675781-8.679687h60.746094c4.792969 0 8.679687 3.886718 8.679687 8.679687s-3.886718 8.675781-8.679687 8.675781zm0 0"/><path d="m468.609375 147.527344h-60.746094c-4.792969 0-8.675781-3.886719-8.675781-8.679688 0-4.792968 3.882812-8.679687 8.675781-8.679687h60.746094c4.792969 0 8.679687 3.886719 8.679687 8.679687 0 4.792969-3.886718 8.679688-8.679687 8.679688zm0 0"/><path d="m468.609375 112.8125h-60.746094c-4.792969 0-8.675781-3.882812-8.675781-8.675781s3.882812-8.679688 8.675781-8.679688h60.746094c4.792969 0 8.679687 3.886719 8.679687 8.679688s-3.886718 8.675781-8.679687 8.675781zm0 0"/><path d="m468.609375 78.101562h-34.710937c-4.792969 0-8.679688-3.886718-8.679688-8.679687 0-4.789063 3.886719-8.675781 8.679688-8.675781h34.710937c4.792969 0 8.679687 3.886718 8.679687 8.675781 0 4.792969-3.886718 8.679687-8.679687 8.679687zm0 0"/><path d="m468.609375 216.949219h-43.390625c-4.792969 0-8.675781-3.886719-8.675781-8.679688s3.882812-8.675781 8.675781-8.675781h43.390625c4.792969 0 8.679687 3.882812 8.679687 8.675781s-3.886718 8.679688-8.679687 8.679688zm0 0"/><path d="m468.609375 182.238281h-43.390625c-4.792969 0-8.675781-3.886719-8.675781-8.679687 0-4.792969 3.882812-8.675782 8.675781-8.675782h43.390625c4.792969 0 8.679687 3.882813 8.679687 8.675782 0 4.792968-3.886718 8.679687-8.679687 8.679687zm0 0"/></g></svg>