<svg height="512pt" viewBox="0 0 512 512" width="512pt" xmlns="http://www.w3.org/2000/svg"><path d="m512 256c0 141.386719-114.613281 256-256 256s-256-114.613281-256-256 114.613281-256 256-256 256 114.613281 256 256zm0 0" fill="#228bd1"/><path d="m185.46875 405.53125h141.054688v62.691406h-141.054688zm0 0" fill="#152d59"/><path d="m485.605469 90.9375v278.390625c-9.625 19.46875-21.648438 37.535156-35.691407 53.804687-1.632812.195313-3.28125.300782-4.964843.300782h-377.898438c-1.683593 0-3.332031-.105469-4.964843-.300782-14.050782-16.28125-26.078126-34.335937-35.691407-53.804687v-278.390625c0-22.453125 18.203125-40.65625 40.65625-40.65625h377.898438c22.453125 0 40.65625 18.203125 40.65625 40.65625zm0 0" fill="#244477"/><path d="m464.710938 90.9375v255.265625c0 10.648437-8.472657 19.363281-19.027344 19.75-.242188.011719-.492188.011719-.730469.011719h-377.898437c-10.898438 0-19.757813-8.863282-19.757813-19.761719v-255.265625c0-10.898438 8.859375-19.761719 19.757813-19.761719h377.898437c10.886719 0 19.757813 8.863281 19.757813 19.761719zm0 0" fill="#ff4079"/><path d="m372.988281 481.824219c0 .667969-.023437 1.324219-.074219 1.984375-35.046874 18.023437-74.792968 28.191406-116.914062 28.191406-42.128906 0-81.878906-10.175781-116.925781-28.203125-.050781-.65625-.070313-1.316406-.070313-1.972656 0-8.328125 3.375-15.871094 8.839844-21.335938 5.464844-5.464843 13.007812-8.839843 21.335938-8.839843h173.628906c16.667968 0 30.179687 13.507812 30.179687 30.175781zm0 0" fill="#244477"/><g fill="#ce2b5c"><path d="m445.683594 255.589844v110.363281c-.242188.011719-.492188.011719-.730469.011719h-254.738281v-110.375zm0 0"/><path d="m149.332031 138.257812h-77.339843c-5.964844 0-10.796876-4.835937-10.796876-10.796874 0-5.964844 4.832032-10.796876 10.796876-10.796876h77.339843c5.960938 0 10.796875 4.832032 10.796875 10.796876 0 5.960937-4.835937 10.796874-10.796875 10.796874zm0 0"/><path d="m149.332031 180.558594h-77.339843c-5.964844 0-10.796876-4.835938-10.796876-10.796875 0-5.964844 4.832032-10.796875 10.796876-10.796875h77.339843c5.960938 0 10.796875 4.832031 10.796875 10.796875 0 5.960937-4.835937 10.796875-10.796875 10.796875zm0 0"/><path d="m149.332031 222.859375h-77.339843c-5.964844 0-10.796876-4.835937-10.796876-10.796875 0-5.964844 4.832032-10.796875 10.796876-10.796875h77.339843c5.960938 0 10.796875 4.832031 10.796875 10.796875 0 5.960938-4.835937 10.796875-10.796875 10.796875zm0 0"/><path d="m149.332031 265.160156h-77.339843c-5.964844 0-10.796876-4.835937-10.796876-10.796875 0-5.964843 4.832032-10.796875 10.796876-10.796875h77.339843c5.960938 0 10.796875 4.832032 10.796875 10.796875 0 5.960938-4.835937 10.796875-10.796875 10.796875zm0 0"/></g><path d="m409.472656 291.460938h-188.851562c-5.964844 0-10.796875-4.832032-10.796875-10.796876 0-5.960937 4.832031-10.796874 10.796875-10.796874h188.851562c5.960938 0 10.796875 4.835937 10.796875 10.796874 0 5.964844-4.835937 10.796876-10.796875 10.796876zm0 0" fill="#ff4079"/><path d="m409.472656 333.761719h-188.851562c-5.964844 0-10.796875-4.832031-10.796875-10.796875 0-5.960938 4.832031-10.796875 10.796875-10.796875h188.851562c5.960938 0 10.796875 4.835937 10.796875 10.796875 0 5.960937-4.835937 10.796875-10.796875 10.796875zm0 0" fill="#ff4079"/><path d="m312.375 365.265625c0 .238281-.011719.46875-.019531.699219h-102.515625c-.011719-.230469-.019532-.460938-.019532-.699219 0-2.988281 1.210938-5.6875 3.164063-7.640625s4.648437-3.15625 7.636719-3.15625h80.960937c5.957031 0 10.792969 4.828125 10.792969 10.796875zm0 0" fill="#ff4079"/><path d="m273.421875 62.078125v24.199219h-99.746094v279.6875h-57.835937v-279.6875h-52.035156c5.058593-6.207032 11.203124-11.296875 18.023437-15.101563 9.207031-5.128906 19.675781-7.917969 30.46875-7.917969h3.542969v-24.316406h73.730468zm0 0" fill="#fff"/><path d="m115.839844 258.105469h30.101562v16.71875h-30.101562zm0 0" fill="#87a8e6"/><path d="m115.839844 301.0625h30.101562v16.71875h-30.101562zm0 0" fill="#87a8e6"/><path d="m115.839844 86.277344h30.101562v16.71875h-30.101562zm0 0" fill="#87a8e6"/><path d="m162.582031 252.261719h110.839844v24.199219l-83.847656 23.128906v42.300781h-26.992188v-89.628906h26.992188" fill="#d4e4ff"/><path d="m131.75 252.261719h-67.949219c5.957031 7.285156 13.375 13.039062 21.671875 16.972656 6.042969 2.875 12.5625 4.769531 19.285156 5.578125v67.078125h26.992188v-89.628906h-26.992188" fill="#d4e4ff"/><path d="m115.839844 129.234375h30.101562v16.71875h-30.101562zm0 0" fill="#87a8e6"/><path d="m115.839844 172.191406h30.101562v16.714844h-30.101562zm0 0" fill="#87a8e6"/><path d="m115.839844 215.148438h30.101562v16.71875h-30.101562zm0 0" fill="#87a8e6"/><path d="m115.839844 344.019531h30.101562v16.71875h-30.101562zm0 0" fill="#87a8e6"/><path d="m190.21875 101.757812h255.464844v134.792969h-255.464844zm0 0" fill="#fcd971"/><path d="m409.472656 137.632812h-188.851562c-5.964844 0-10.796875-4.832031-10.796875-10.796874 0-5.964844 4.832031-10.796876 10.796875-10.796876h188.851562c5.960938 0 10.796875 4.832032 10.796875 10.796876 0 5.964843-4.835937 10.796874-10.796875 10.796874zm0 0" fill="#212733"/><path d="m409.472656 179.933594h-188.851562c-5.964844 0-10.796875-4.832032-10.796875-10.796875 0-5.964844 4.832031-10.796875 10.796875-10.796875h188.851562c5.960938 0 10.796875 4.832031 10.796875 10.796875 0 5.964843-4.835937 10.796875-10.796875 10.796875zm0 0" fill="#212733"/><path d="m301.578125 222.234375h-80.957031c-5.964844 0-10.796875-4.832031-10.796875-10.796875 0-5.960938 4.832031-10.796875 10.796875-10.796875h80.957031c5.964844 0 10.796875 4.835937 10.796875 10.796875 0 5.964844-4.832031 10.796875-10.796875 10.796875zm0 0" fill="#212733"/></svg>